<svg width="88" height="100" viewBox="0 0 88 100" fill="none" xmlns="http://www.w3.org/2000/svg">
<path d="M81.4 20.4L49.8 1.7C48 0.6 45.9 0 43.7 0C41.6 0 39.5 0.6 37.6 1.7L6.1 20.4C2.3 22.7 0 26.8 0 31.3V68.8C0 73.3 2.3 77.4 6.1 79.6L37.7 98.3C39.6 99.4 41.7 100 43.8 100C45.9 100 48 99.4 49.9 98.3L81.5 79.6C85.3 77.4 87.6 73.2 87.6 68.8V31.3C87.5 26.8 85.2 22.7 81.4 20.4ZM57 78.9L57.1 81.6C57.1 81.9 56.9 82.3 56.6 82.4L55 83.4C54.7 83.5 54.5 83.4 54.5 83V80.4C53.1 81 51.8 81.1 50.9 80.7C50.7 80.6 50.7 80.4 50.7 80.1L51.3 77.7C51.3 77.5 51.4 77.3 51.6 77.2C51.6 77.2 51.7 77.1 51.8 77.1C51.9 77.1 52 77 52.1 77.1C53.1 77.4 54.3 77.3 55.4 76.7C56.9 75.9 57.9 74.4 57.9 72.9C57.9 71.5 57.1 71 55.3 71C53 71 50.9 70.6 50.8 67.2C50.8 64.4 52.2 61.5 54.5 59.7V57C54.5 56.7 54.7 56.3 55 56.2L56.5 55.2C56.8 55.1 57 55.2 57 55.6V58.3C58.1 57.8 59.1 57.7 60 57.9C60.2 58 60.3 58.2 60.2 58.5L59.6 60.9C59.6 61.1 59.5 61.3 59.3 61.4C59.2 61.5 59.2 61.5 59.1 61.5C59 61.5 58.9 61.6 58.9 61.5C58.5 61.4 57.5 61.2 56 62C54.4 62.8 53.8 64.2 53.8 65.2C53.8 66.4 54.4 66.8 56.6 66.8C59.5 66.8 60.8 68.1 60.8 71.1C60.9 73.9 59.3 77 57 78.9ZM79 28.3L49.1 46.8C45.4 49 42.6 51.4 42.6 55.9V92.7C42.6 95.4 43.7 97.1 45.4 97.6C44.9 97.7 44.3 97.8 43.7 97.8C42 97.8 40.2 97.3 38.7 96.4L7.2 77.7C4.1 75.9 2.2 72.4 2.2 68.8V31.3C2.2 27.6 4.1 24.2 7.2 22.4L38.8 3.6C40.3 2.7 42 2.2 43.8 2.2C45.5 2.2 47.3 2.7 48.8 3.6L80.4 22.3C83 23.8 84.8 26.5 85.3 29.5C84.1 27.3 81.7 26.7 79 28.3Z" fill="#283037"/>
<path d="M73.1 72.4L65.2 77.0999C65 77.1999 64.8 77.3999 64.8 77.5999V79.6999C64.8 79.9999 65 80.1 65.2 79.9L73.2 74.9999C73.4 74.8999 73.4 74.6 73.4 74.4V72.5999C73.5 72.2999 73.3 72.2 73.1 72.4Z" fill="#4DA825"/>
</svg>
