<?xml version="1.0" encoding="UTF-8"?>
<svg id="Layer_1" xmlns="http://www.w3.org/2000/svg" version="1.1" xmlns:xlink="http://www.w3.org/1999/xlink" viewBox="0 0 103.7 112.7">
  <!-- Generator: Adobe Illustrator 30.2.1, SVG Export Plug-In . SVG Version: 2.1.1 Build 1)  -->
  <defs>
    <style>
      .st0 {
        fill: url(#linear-gradient);
      }
    </style>
    <linearGradient id="linear-gradient" x1="51.8" y1="89.5" x2="51.8" y2="-13.3" gradientTransform="translate(0 48.6)" gradientUnits="userSpaceOnUse">
      <stop offset="0" stop-color="#fcee1f"/>
      <stop offset="1" stop-color="#f15b2a"/>
    </linearGradient>
  </defs>
  <path class="st0" d="M103.5,49.9c-.2-1.9-.5-4.1-1.1-6.5s-1.6-5-2.9-7.8c-1.4-2.7-3.1-5.6-5.4-8.3-.9-1.1-1.9-2.1-2.9-3.2,1.6-6.3-1.9-11.8-1.9-11.8-6.1-.4-9.9,1.9-11.3,2.9-.2-.1-.5-.2-.7-.3-1-.4-2.1-.8-3.2-1.2-1.1-.3-2.2-.7-3.3-.9-1.1-.3-2.3-.5-3.5-.7-.2,0-.4-.1-.6-.1C64.1,3.6,56.5,0,56.5,0c-8.7,5.6-10.4,13.1-10.4,13.1,0,0,0,.2,0,.4-.5.1-.9.3-1.4.4-.6.2-1.3.4-1.9.7-.6.3-1.3.5-1.9.8-1.3.6-2.5,1.2-3.8,1.9-1.2.7-2.4,1.4-3.5,2.2-.2-.1-.3-.2-.3-.2-11.7-4.5-22.1.9-22.1.9-.9,12.5,4.7,20.3,5.8,21.7-.3.8-.5,1.5-.8,2.3-.9,2.8-1.5,5.7-1.9,8.7,0,.4,0,.9-.2,1.3C3.2,59.5,0,70.5,0,70.5c9,10.4,19.6,11,19.6,11h0c1.3,2.4,2.9,4.7,4.6,6.8.7.9,1.5,1.7,2.3,2.6-3.3,9.4.5,17.3.5,17.3,10.1.4,16.7-4.4,18.1-5.5,1,.3,2,.6,3,.9,3.1.8,6.3,1.3,9.4,1.4h4.1c4.7,6.8,13.1,7.7,13.1,7.7,5.9-6.3,6.3-12.4,6.3-13.8h0v-.3h0v-.3c1.2-.9,2.4-1.8,3.6-2.8,2.4-2.1,4.4-4.6,6.2-7.2.2-.2.3-.5.5-.7,6.7.4,11.4-4.2,11.4-4.2-1.1-7-5.1-10.4-5.9-11h0c0,0,0-.2,0-.2h0c0-.5,0-.9,0-1.4,0-.8,0-1.5,0-2.3v-.9h0v-2c0-.2,0-.4,0-.6v-.6c0,0-.2-.6-.2-.6,0-.8-.3-1.5-.4-2.3-.7-3-1.9-5.9-3.4-8.4-1.6-2.6-3.5-4.8-5.7-6.8-2.2-1.9-4.6-3.5-7.2-4.6-2.6-1.2-5.2-1.9-7.9-2.2-1.3-.2-2.7-.2-4-.2h-2c-.7,0-1.4.2-2,.3-2.7.5-5.2,1.5-7.4,2.8-2.2,1.3-4.1,3-5.7,4.9s-2.8,3.9-3.6,6.1c-.8,2.1-1.3,4.4-1.4,6.5v2.4c0,.3,0,.5,0,.8,0,1.1.3,2.1.6,3.1.6,2,1.5,3.8,2.7,5.4s2.5,2.8,4,3.8,3,1.7,4.6,2.2,3.1.7,4.5.6h2.1c.2,0,.4,0,.5,0,.2,0,.3,0,.5,0,.3,0,.7-.2,1-.3.6-.2,1.2-.5,1.8-.7.6-.3,1.1-.6,1.5-.9,0,0,.3-.2.4-.3.5-.4.6-1.1.2-1.6-.4-.4-1-.5-1.5-.3-.1,0-.2,0-.4.2-.4.2-.9.4-1.3.5-.5,0-1,.3-1.5.4-.3,0-.5,0-.8,0h-1.7s0,0,0,0h-.4c0,0-.3,0-.4,0-1.1-.2-2.3-.5-3.4-1s-2.2-1.2-3.1-2.1c-1-.9-1.8-1.9-2.5-3.1s-1.1-2.5-1.3-3.8c0-.7-.2-1.4,0-2.1v-.6c0,0,0,0,0,0h0v-.5c0-.4,0-.7.2-1.1.5-3,2-5.9,4.3-8.1.6-.6,1.2-1.1,1.9-1.5.7-.5,1.4-.9,2.1-1.2s1.5-.6,2.3-.8,1.6-.4,2.4-.4.8,0,1.2,0h.8c0,0,0,0,0,0h.4c.9,0,1.8.2,2.6.4,1.7.4,3.4,1,5,1.9,3.2,1.8,5.9,4.5,7.5,7.8.8,1.6,1.4,3.4,1.7,5.3,0,.5,0,.9.2,1.4v2.6c0,.5,0,1,0,1.5,0,.5,0,1-.2,1.5s-.2,1-.3,1.5c-.2,1-.6,1.9-.9,2.9-.7,1.9-1.7,3.7-2.9,5.3-2.4,3.3-5.7,6-9.4,7.7-1.9.8-3.8,1.5-5.8,1.8-1,.2-2,.3-3,.3h-1.5c0,0,0,0,0,0h0c-.5,0-1.1,0-1.6,0-2.2-.2-4.3-.6-6.4-1.2s-4.1-1.4-6-2.4c-3.8-2-7.2-4.9-9.9-8.2-1.3-1.7-2.5-3.5-3.5-5.4s-1.7-3.9-2.3-5.9-.9-4.1-1-6.2v-.4h0v-.7h0v-.9h0v-1.1c0-1,0-2.1.3-3.2,0-1.1.3-2.1.5-3.2.2-1.1.5-2.1.8-3.2.6-2.1,1.3-4.1,2.2-6,1.8-3.8,4.1-7.2,6.8-9.9.7-.7,1.4-1.3,2.2-1.9.3-.3,1-.9,1.8-1.4s1.6-1,2.5-1.4c.4-.2.8-.4,1.3-.6.2-.1.4-.2.7-.3.2-.1.4-.2.7-.3.9-.4,1.8-.7,2.7-1,.2-.1.5-.1.7-.2s.5-.1.7-.2c.5-.1.9-.2,1.4-.4.2-.1.5-.1.7-.2.2,0,.5-.1.7-.1s.5-.1.7-.1h.4c0-.1.4-.2.4-.2.2,0,.5-.1.7-.1.3,0,.5-.1.8-.1s.6-.1.8-.1.3,0,.5-.1h.7c.3,0,.5,0,.8-.1h.4s0,0,0,0h3.7c1.8.1,3.6.3,5.3.6,3.4.6,6.7,1.7,9.6,3.2,2.9,1.4,5.6,3.2,7.8,5.1,0,0,.3.2.4.4,0,0,.3.2.4.4.3.2.5.5.8.7s.5.5.8.7c.2.3.5.5.7.8,1,1,1.9,2.1,2.7,3.1,1.6,2.1,2.9,4.2,3.9,6.2,0,0,0,.2.2.4,0,0,0,.2.2.4s.2.5.4.7c0,.2.2.5.3.7,0,.2.2.5.3.7.4.9.7,1.8,1,2.7.5,1.4.8,2.6,1.1,3.6,0,.4.5.7.9.7s.8-.4.8-.9c0-1.2,0-2.5-.2-4Z"/>
</svg>